<svg xmlns="http://www.w3.org/2000/svg" viewBox="0 0 1024 1024"><path d="M810.416 970.72l-170.4-201.664V415.552h21.312c17.68 0 32-14.32 32-32s-14.32-32-32-32h-53.312c-17.68 0-32 14.32-32 32v397.824a31.942 31.942 0 0 0 8.256 21.44L714.64 960.16H309.36l130.368-157.344a31.942 31.942 0 0 0 8.256-21.44V383.552c0-17.68-14.32-32-32-32h-53.312c-17.68 0-32 14.32-32 32s14.32 32 32 32h21.312v353.504l-170.4 201.664a32.04 32.04 0 0 0-5.504 34.432 32 32 0 0 0 29.248 19.008h549.344a32 32 0 0 0 29.248-19.008c5.12-11.552 2.976-25.056-5.504-34.432zM480 319.68c35.264 0 63.84-28.592 63.84-63.84 0-35.216-28.576-63.808-63.84-63.808-35.28 0-63.84 28.592-63.84 63.808 0 35.248 28.56 63.84 63.84 63.84zm208.48-94.992c62.368 0 112.928-50.336 112.928-112.416S750.864-.144 688.48-.144c-62.352 0-112.928 50.336-112.928 112.416s50.576 112.416 112.928 112.416zm-.496-161.024c26.656 0 48.336 21.584 48.336 48.128 0 26.528-21.68 48.128-48.336 48.128s-48.336-21.6-48.336-48.128c.016-26.544 21.68-48.128 48.336-48.128z"/></svg>