<svg xmlns="http://www.w3.org/2000/svg" viewBox="0 0 1024 1024"><path d="M1023.456 232a31.634 31.634 0 0 0-2.48-18.272C1012.912 178.288 987.296 160 944 160H112c-38.08 0-79.104 14-99.28 41.472-1.744 1.328-3.408 2.832-4.912 4.576-6.448 7.44-8.704 17.008-7.264 26.032C.256 234.672 0 237.28 0 240v512c0 53.024 58.992 112 112 112h832c53.024 0 80-58.976 80-112V240c0-2.832-.368-5.312-.544-8zM112 224h832.432L512 568.656 81.312 225.408C91.104 223.6 103.152 224 112 224zm832 576H112c-17.648 0-48-30.336-48-48V293.552L491.04 635.2c6.016 5.2 13.488 7.792 20.96 7.792s14.944-2.592 20.976-7.792L960 293.568V752c0 17.664 1.664 48-16 48z"/></svg>