<svg xmlns="http://www.w3.org/2000/svg" viewBox="0 0 1024 1024"><path d="M1025.024 512c0-272.016-213.664-495.104-482.32-511.024-5.536-.608-11.088-1.008-16.72-1.008-1.664 0-3.328.176-4.992.224C518 .144 515.024-.032 512-.032 229.12-.032-1.024 229.664-1.024 512S229.12 1024.032 512 1024.032c3.024 0 6-.176 9.008-.24 1.664.064 3.328.24 4.992.24 5.632 0 11.184-.4 16.72-1.008 268.64-15.92 482.304-238.976 482.304-511.024zm-95.456 164.832c-17.632-5.12-61.92-16.24-140.064-25.392 6.464-44.192 10-90.896 10-139.44 0-38.256-2.208-75.344-6.288-111.008 99.008-11.824 142.384-26.72 145.296-27.744l-11.92-33.584c22.24 53.088 34.56 111.296 34.56 172.336 0 58.192-11.28 113.76-31.584 164.832zM285.488 512c0-35.808 2.368-70.768 6.704-104.4 51.888 4.08 113.936 7.088 186.864 7.792v222.064c-70.992.688-131.664 3.568-182.688 7.472-7.04-42.192-10.88-86.88-10.88-132.928zM542.944 68.224C621.408 90.96 688.592 199.92 718.688 344.336c-48.368 3.856-106.624 6.672-175.744 7.328V68.224zm-63.888.784v282.624c-68.368-.688-126.88-3.472-176.064-7.232 30.704-142.608 98.432-250.752 176.064-275.392zm0 632.224v253.744C406.656 932 342.864 836.4 309.696 707.952c47.76-3.504 104.096-6.064 169.36-6.72zm63.888 254.544v-254.56c65.952.624 122.064 3.28 169.216 6.928-32.608 130.128-96 226.416-169.216 247.632zm0-318.32V415.424c73.312-.688 134.992-3.776 186.192-8a844.92 844.92 0 0 1 6.496 104.592c0 46.128-3.712 90.864-10.528 133.12-50.416-4.08-110.8-7.008-182.16-7.68zM914.8 313.936c-9.664 3.008-50.064 14.48-131.024 24.032C765.728 242.016 733.104 160 690.656 100.8c97.536 42.384 177.136 118.304 224.144 213.136zM358.816 90.592c-52.208 59.952-94.832 146.16-118.096 248.112-72.48-7.856-115.92-17.088-133.312-21.28 50.72-104.64 141.04-186.752 251.408-226.832zM83.632 377.184c12.32 3.344 58.912 14.944 145.552 24.528a795.838 795.838 0 0 0-7.68 110.304c0 48.272 4.368 94.72 12.24 138.688-74.4 8.032-120.16 17.648-140.688 22.608C73.616 623.216 62.848 568.864 62.848 512c0-46.96 7.312-92.256 20.784-134.816zm37.456 355.168c23.264-4.944 64.912-12.464 126.592-18.928 24.288 89.712 63.792 165.616 111.136 219.968-101.12-36.72-185.296-108.752-237.728-201.04zm569.568 190.832c38.224-53.264 68.48-125.024 87.296-208.8 63.408 7.28 103.216 15.792 123.296 20.864-48.016 83.072-121.856 149.392-210.592 187.936z"/></svg>