<svg xmlns="http://www.w3.org/2000/svg" viewBox="0 0 1024 1024"><path d="M21.84 301.808l475.088 258.72a32.09 32.09 0 0 0 15.312 3.904c5.216 0 10.432-1.28 15.184-3.84l480.096-258.72c10.464-5.632 16.976-16.624 16.816-28.528a32.086 32.086 0 0 0-17.504-28.16L531.712 3.904c-9.056-4.592-19.744-4.624-28.88-.064L22.784 245.12c-10.624 5.344-17.44 16.16-17.632 28.064s6.256 22.944 16.688 28.624zm495.312-233.52l406.16 206.272-410.976 221.472L106.16 274.848l410.992-206.56zm484.192 412.032l-94.976-48.224-68.56 36.976 80 40.624-410.96 221.456-406.192-221.184 85.312-42.88L117.6 429.84l-100.32 50.4C6.656 485.584-.16 496.4-.352 508.304s6.256 22.944 16.688 28.624l475.088 258.72a32.09 32.09 0 0 0 15.312 3.904c5.216 0 10.432-1.28 15.184-3.84l480.096-258.72c10.464-5.632 16.976-16.624 16.816-28.528a31.997 31.997 0 0 0-17.488-28.144zm0 224l-89.968-44.224-68.56 36.976 75.008 36.624-410.976 221.456-406.192-221.184 79.312-35.872-68.368-37.248-94.32 43.408C6.656 709.6-.16 720.416-.352 732.32s6.256 22.944 16.688 28.624l475.088 258.72a32.09 32.09 0 0 0 15.312 3.904c5.216 0 10.432-1.28 15.184-3.84l480.096-258.72c10.464-5.632 16.976-16.624 16.816-28.528a32.003 32.003 0 0 0-17.488-28.16z"/></svg>