<svg xmlns="http://www.w3.org/2000/svg" viewBox="0 0 1024 1024"><path d="M792.848 736.72c-101.344 0-158.864-47.632-196.944-79.152-13.472-11.152-25.728-21.904-36.88-31.664-16.912-14.848-38-33.344-45.344-35.904-.224 0-3.712-.16-3.936-.192-1.168.096-4.144.688-4.448.72-5.072 2.064-23.088 17.568-37.568 30-13.136 11.28-28.112 24.16-45.04 37.376l-3.088 2.368c-43.472 33.936-97.584 76.16-193.152 76.16-70.992 0-140.928-32.128-182.576-83.872-27.92-34.688-57.296-95.024-38.672-185.472 2.256-10.944 10.016-19.904 20.432-23.632 10.48-3.776 22.016-1.712 30.608 5.376.624.464 22.576 17.344 59.056 17.344 18.368 0 37.504-4.336 56.832-12.944 33.136-14.752 56.736-56.128 81.712-84.064 34.176-38.16 72.848-81.408 136.688-81.904 44.048 0 83.792 16.288 119.248 48.496 35.312-32.064 74.768-48.256 117.68-48.256 65.104.496 104.592 43.776 139.44 82 25.44 27.872 49.472 69.216 82.608 83.968 19.328 8.592 38.672 12.944 57.488 12.944 37.872 0 61.504-17.312 62.448-18.064 8.768-6.496 20.32-8.192 30.48-4.224 10.144 4 17.68 12.88 19.712 23.664 17.088 89.44-12.96 149.408-41.184 183.968-42.768 52.4-113.904 84.96-185.6 84.96zM510.736 525.872c.992 0 3.68.096 4.624.192.032 0 4.688.336 4.688.368.336.032 3.008.368 3.296.432 23.152 3.28 44.624 22.128 77.216 50.688 10.704 9.408 22.496 19.744 35.472 30.496 34.784 28.816 78.096 64.656 156.816 64.656 53.312 0 105.744-23.632 136.784-61.68 20.4-24.976 31.008-54.72 31.68-88.784-15.024 4.688-33.28 8.192-54.32 8.192-27.664 0-55.568-6.192-82.976-18.368-45.248-20.096-76.304-69.12-103.68-99.152-34.528-37.872-57.472-61.088-92.08-61.376-46.16 0-75.952 29.056-94.416 50.912-6.032 7.12-14.816 11.216-24.096 11.216s-18.08-4.128-24.08-11.248c-18.528-21.936-48.416-51.12-93.84-51.12-35.088.256-57.408 23.28-90.992 60.848-27.056 30.224-57.696 79.472-103.232 99.68-27.392 12.192-55.104 18.368-82.304 18.368-20.4 0-38.064-3.408-52.624-8.032-.032 34.72 10.112 64.912 30.336 90.032 29.936 37.152 81.04 60.256 133.44 60.256 74 0 114.896-31.936 154.464-62.816l3.088-2.416c16.048-12.528 30.24-24.752 42.688-35.44 28.512-24.496 47.328-40.688 67.648-44.288.016.016 9.696-1.616 16.4-1.616z"/></svg>