<svg xmlns="http://www.w3.org/2000/svg" viewBox="0 0 1024 1024"><path d="M746 835.28l-201.472-111.6c74.88-58.912 95.216-174.688 95.216-239.6V348.96c0-89.472-118.88-189.12-238.288-189.12-119.376 0-241.408 99.664-241.408 189.12v135.12c0 59.024 24.976 178.432 100.624 239.088L54 835.28S0 859.344 0 889.344v81.088c0 29.84 24.224 54.064 54 54.064h692c29.808 0 54.032-24.224 54.032-54.064v-81.088c0-31.808-54.032-54.064-54.032-54.064zm-9.968 125.216H64V903.28c4.592-3.344 11.008-7.216 16.064-9.536 1.504-.688 3.008-1.408 4.432-2.224l206.688-112.096c18.848-10.224 31.344-29.184 33.248-50.528s-7.008-42.256-23.712-55.664c-53.664-43.024-76.656-138.32-76.656-189.152V348.96c0-45.968 86.656-125.12 177.408-125.12 92.432 0 174.288 78.064 174.288 125.12v135.12c0 50.128-15.568 145.84-70.784 189.28a64.1 64.1 0 0 0-24.224 55.664 64.104 64.104 0 0 0 33.12 50.848l201.472 111.6c1.776.976 4.032 2.032 5.904 2.848 4.72 2 10.528 5.344 14.784 8.288v57.888zm233.936-284.56l-204.464-111.6c74.88-58.912 98.224-174.688 98.224-239.6v-135.12c0-89.472-121.872-190.128-241.28-190.128-77.6 0-156.944 42.192-203.12 96.224 26.336 1.632 55.376 1.664 80.464 9.664 33.712-26.256 76.368-41.872 122.656-41.872 92.432 0 177.28 79.056 177.28 126.128v135.12c0 50.128-18.56 145.84-73.776 189.28a64.1 64.1 0 0 0-24.224 55.664 64.104 64.104 0 0 0 33.12 50.848l204.464 111.6c1.776.976 4.032 2.032 5.904 2.848 4.72 2 10.528 5.344 14.784 8.288v56.912H830.816c19.504 14.72 25.408 35.776 32.976 64h106.192c29.808 0 54.032-24.224 54.032-54.064v-80.096c-.016-31.84-54.048-54.096-54.048-54.096z"/></svg>