<svg xmlns="http://www.w3.org/2000/svg" viewBox="0 0 1024 1024"><path d="M977.768 574.454a487.638 487.638 0 0 0 4.867-68.74c0-261.779-212.911-474.893-474.893-474.893-21.899 0-44.204 1.622-65.901 4.461C398.853 12.166 350.188 0 301.117 0 137.277 0 4.056 133.221 4.056 296.859c0 48.26 11.761 95.911 34.269 138.291-3.447 23.319-5.272 47.043-5.272 70.565 0 261.779 212.911 474.893 474.893 474.893 18.452 0 37.107-1.014 55.357-3.244 47.651 30.416 102.806 46.638 159.785 46.638 163.84 0 296.859-133.221 296.859-296.859 0-53.937-14.6-106.658-42.177-152.688zm-92.87 314.5c-43.19 43.19-100.778 67.118-162.015 67.118-45.218 0-88.814-13.18-126.327-38.121l-16.83-11.152-20.074 2.636c-17.033 2.23-34.471 3.244-51.707 3.244-54.951 0-108.28-10.747-158.365-32.038-48.463-20.48-92.059-49.882-129.369-87.192s-66.712-80.906-87.192-129.369c-21.291-50.085-32.038-103.414-32.038-158.365 0-21.494 1.622-43.19 5.069-64.482l2.839-18.25-8.922-16.222c-18.25-33.457-27.983-71.376-27.983-109.903 0-61.237 23.724-118.622 67.118-162.015 43.19-43.19 100.778-67.118 162.015-67.118 39.135 0 77.865 10.139 111.728 29.199l16.222 9.125 18.452-2.636c19.872-3.042 40.352-4.461 60.426-4.461 54.951 0 108.28 10.747 158.365 32.038 48.463 20.48 92.059 49.882 129.369 87.192s66.712 80.906 87.192 129.369c21.291 50.085 32.038 103.414 32.038 158.365 0 21.088-1.622 42.379-4.867 63.265L907 589.053l10.747 17.236c22.508 36.296 34.471 78.067 34.471 120.852-.203 61.034-24.13 118.622-67.32 161.812zM578.712 461.51l-96.114-21.697c-52.315-11.761-78.676-29.808-78.676-54.546 0-17.641 7.3-32.038 21.697-42.988s34.877-16.425 61.034-16.425c30.821 0 55.965 6.489 75.026 19.669 5.678 3.65 17.844 15.613 36.499 35.688 12.166 12.977 25.347 19.669 39.338 19.669 14.397 0 26.969-4.055 37.107-12.166 10.341-8.111 15.411-19.263 15.411-33.255 0-32.241-21.291-60.223-63.873-83.948-40.149-22.508-84.15-33.66-132.005-33.66-55.154 0-100.981 11.761-137.48 35.08-42.582 27.577-63.873 67.32-63.873 119.027 0 70.97 41.163 117 123.488 137.885l129.774 32.849c32.646 8.314 49.071 25.955 49.071 52.518 0 17.844-7.908 32.849-23.724 45.421-17.236 13.991-40.149 21.088-68.537 21.088-33.052 0-59.615-7.908-79.69-23.724-4.664-3.244-17.438-17.641-38.324-43.393-12.977-15.816-27.78-23.724-44.002-23.724-13.991 0-25.549 4.461-34.674 13.383s-13.586 20.277-13.586 34.269c0 31.835 17.033 59.818 51.099 83.948 39.541 28.996 92.87 43.393 159.379 43.393 67.118 0 118.825-15.208 155.324-45.624 34.471-27.983 51.707-65.901 51.707-113.552.608-76.648-43.393-125.11-131.396-145.185z"/></svg>