<svg xmlns="http://www.w3.org/2000/svg" viewBox="0 0 1024 1024"><path d="M1006.368 215.936c-10.784-4.976-23.584-3.088-32.56 4.848L812.496 365.68 666.864 216.272 811.056 49.744c7.84-9.056 9.744-21.536 4.864-32.512S800.256-.464 788.4-.464h-8.688c-89.12 0-242.976 7.664-311.664 77.344l-13.856 13.76c-73.28 74.768-86.288 197.376-47.68 290.576L37.232 758.112c-49.792 50.48-49.792 132.32 0 182.816l45.072 45.696c24.896 25.232 57.536 37.856 90.176 37.856 32.624 0 65.264-12.624 90.144-37.856l374.72-377.728c35.44 19.152 84 31.664 124.784 31.664 65.376 0 127.344-26.368 174.528-74.256l13.664-13.84c74.608-75.648 73.456-237.296 73.792-308.416.032-12.096-6.928-23.088-17.744-28.112zM905.664 509.008l-11.872 13.872c-35.744 36.272-82.496 53.648-131.664 53.648-24.32 0-57.088-4.576-79.216-13.792-20-8.304-38.576-20.288-55.2-35.424L217.536 940.928c-12.032 12.224-28.032 18.944-45.056 18.944s-33.04-6.72-45.088-18.944l-45.056-45.68c-24.864-25.216-24.864-66.224-.016-91.44l400.784-408.864c-13.44-19.568-22.592-40.896-28.048-62.976h-.016c-15.424-62.384-6.432-148.608 42.016-198.048L510.848 120c41.552-42.16 149.456-54.624 209.2-58.304l-117.36 135.536c-10.496 12.128-9.968 30.4 1.216 41.872L789.44 429.44c11.248 11.584 29.44 12.256 41.552 1.52L961.6 313.328c-3.888 63.36-16.192 155.376-55.936 195.68z"/></svg>